<svg viewBox="0 0 200 60" xmlns="http://www.w3.org/2000/svg">
  <defs>
    <linearGradient id="bgGrad" x1="0%" y1="0%" x2="100%" y2="100%">
      <stop offset="0%" style="stop-color:#1a1a2e"/>
      <stop offset="100%" style="stop-color:#16213e"/>
    </linearGradient>
    <linearGradient id="accentGrad" x1="0%" y1="0%" x2="100%" y2="0%">
      <stop offset="0%" style="stop-color:#f97316"/>
      <stop offset="100%" style="stop-color:#fb923c"/>
    </linearGradient>
  </defs>
  
  <!-- Background -->
  <rect width="200" height="60" rx="8" fill="url(#bgGrad)"/>
  
  <!-- Sync Arrows Icon -->
  <g transform="translate(15, 10)">
    <path d="M8 20 Q8 10 18 10 L22 10 Q32 10 32 20 Q32 30 22 30 L18 30" 
          stroke="#f97316" stroke-width="3" fill="none" stroke-linecap="round"/>
    <path d="M24 15 L32 20 L24 25" 
          stroke="#f97316" stroke-width="3" fill="none" stroke-linecap="round" stroke-linejoin="round"/>
    <path d="M32 20 Q32 30 22 30 L18 30 Q8 30 8 20" 
          stroke="#fb923c" stroke-width="3" fill="none" stroke-linecap="round"/>
    <path d="M16 25 L8 20 L16 15" 
          stroke="#fb923c" stroke-width="3" fill="none" stroke-linecap="round" stroke-linejoin="round"/>
  </g>
  
  <!-- Text: WooSync -->
  <text x="60" y="38" font-family="Arial, sans-serif" font-size="22" font-weight="bold" fill="#ffffff">
    WooSync
  </text>
  
  <!-- Accent underline -->
  <rect x="60" y="45" width="60" height="3" rx="1.5" fill="url(#accentGrad)"/>
</svg>
